<?xml version="1.0" standalone="no"?>
<!DOCTYPE svg PUBLIC "-//W3C//DTD SVG 20010904//EN"
 "http://www.w3.org/TR/2001/REC-SVG-20010904/DTD/svg10.dtd">
<svg version="1.0" xmlns="http://www.w3.org/2000/svg"
 width="348.000000pt" height="250.000000pt" viewBox="0 0 348.000000 250.000000"
 preserveAspectRatio="xMidYMid meet">

<g transform="translate(0.000000,250.000000) scale(0.100000,-0.100000)"
fill="#000000" stroke="none">
<path fill="#e31e24" d="M3270 2489 c-21 -5 -49 -23 -72 -48 -32 -34 -38 -47 -38 -83 0 -140
179 -201 260 -89 74 105 -22 247 -150 220z m87 -74 c41 -29 38 -98 -6 -132
-27 -21 -79 -15 -106 12 -71 70 30 178 112 120z"/>
<path d="M1121 2453 c-120 -60 -74 -243 61 -243 79 0 143 89 119 163 -13 39
-44 71 -84 86 -38 15 -56 14 -96 -6z"/>
<path d="M40 1950 l0 -482 248 4 c278 5 329 15 428 82 228 154 258 545 57 737
-115 111 -182 129 -495 136 l-238 6 0 -483z m482 227 c44 -22 60 -37 82 -77
53 -97 44 -264 -19 -338 -36 -43 -115 -73 -207 -80 l-78 -5 0 265 c0 146 2
267 4 269 3 2 40 2 84 -1 57 -5 95 -14 134 -33z"/>
<path d="M2160 2230 l0 -100 -50 0 -50 0 0 -79 0 -80 48 -3 47 -3 3 -247 2
-248 115 0 115 0 2 248 3 247 48 3 47 3 0 80 0 79 -50 0 -50 0 0 100 0 100
-115 0 -115 0 0 -100z"/>
<path d="M1610 2141 c-63 -20 -122 -66 -149 -118 -6 -12 -11 -51 -11 -88 0
-63 2 -67 41 -110 42 -46 94 -70 198 -95 52 -12 101 -46 101 -70 0 -5 -9 -19
-20 -30 -40 -40 -167 -23 -262 37 -21 13 -41 23 -46 23 -8 0 -42 -131 -42
-162 0 -18 70 -50 156 -73 68 -18 182 -20 239 -4 140 38 218 170 170 286 -9
21 -23 46 -33 56 -24 26 -94 61 -177 86 -84 26 -115 45 -115 70 0 31 27 44 92
43 44 -1 75 -8 114 -27 29 -14 57 -26 61 -26 4 0 17 34 29 76 l22 76 -37 15
c-95 40 -257 57 -331 35z"/>
<path d="M2985 2136 c-60 -19 -93 -44 -131 -100 l-34 -51 0 73 0 72 -110 0
-110 0 0 -330 0 -330 114 0 114 0 4 173 c3 167 4 173 30 219 35 59 91 84 172
75 l55 -5 7 56 c4 31 8 80 8 107 l1 50 -40 2 c-22 1 -58 -4 -80 -11z"/>
<path d="M1060 1800 l0 -330 115 0 115 0 0 330 0 330 -115 0 -115 0 0 -330z"/>
<path d="M3210 1800 l0 -330 115 0 115 0 0 330 0 330 -115 0 -115 0 0 -330z"/>
<path fill="#0a3d73" d="M7 1383 c-4 -3 -7 -316 -7 -695 l0 -688 1740 0 1740 0 0 695 0 695
-1733 0 c-954 0 -1737 -3 -1740 -7z m744 -187 c101 -22 163 -53 213 -106 47
-50 115 -174 103 -186 -6 -7 -232 -63 -253 -64 -6 0 -18 18 -26 39 -36 92
-168 126 -257 68 -31 -21 -50 -44 -69 -85 -23 -50 -26 -69 -26 -162 1 -121 14
-176 51 -221 34 -40 79 -59 138 -59 88 0 138 37 171 128 10 26 20 50 23 53 3
3 62 -10 131 -30 95 -27 126 -40 128 -54 6 -28 -62 -161 -107 -210 -26 -28
-67 -56 -113 -77 -67 -31 -82 -34 -193 -38 -138 -5 -205 6 -291 47 -110 53
-203 180 -233 319 -28 133 -3 341 53 436 34 59 117 133 181 162 111 51 252 66
376 40z m916 -267 c100 -14 150 -36 214 -96 80 -75 111 -153 111 -278 -1 -146
-71 -258 -199 -322 l-77 -38 -130 0 c-121 0 -135 2 -189 27 -76 36 -159 115
-188 181 -31 71 -37 193 -14 272 40 138 152 232 302 254 82 12 83 12 170 0z
m1079 -14 c17 -7 44 -29 60 -49 16 -20 33 -36 37 -36 5 0 29 17 53 39 102 89
292 87 372 -4 53 -60 57 -85 57 -385 l0 -275 -132 -3 -133 -3 0 216 c0 229 -7
272 -48 294 -41 22 -110 2 -128 -36 -5 -10 -11 -119 -14 -243 l-5 -225 -135 0
-135 0 -5 232 c-5 228 -5 232 -29 257 -41 43 -111 30 -143 -27 -9 -15 -15 -92
-18 -242 l-5 -220 -132 -3 -133 -3 0 361 0 360 125 0 125 0 0 -45 c0 -25 4
-45 8 -45 5 0 21 14 38 31 38 40 58 50 124 66 60 13 148 8 196 -12z M1553 743 c-12 -2 -37 -22 -57 -43 -27 -30 -36 -50 -41 -95 -17 -130 38 -225 128 -225 91 0 131 56 131 185 0 129 -63 199 -161 178z"/>
</g>
</svg>
