<?xml version="1.0" encoding="UTF-8"?><svg id="Capa_1" xmlns="http://www.w3.org/2000/svg" viewBox="0 0 3673 1601"><defs><style>.cls-1{fill:#006400;}.cls-2{fill:#171989;}.cls-3{fill:#95c800;}</style></defs><path class="cls-2" d="m0,479.7c4.65-.19,9.3-.53,13.96-.54,69.31-.03,138.61-.1,207.92.03,16.99.03,14.54-2.87,23.86,13.85,49.77,89.29,99.51,178.61,149.26,267.91,25.93,46.54,51.87,93.08,77.8,139.62.96,1.72,1.94,3.44,3.46,6.14,2.52-3.94,1.63-7.52,1.63-10.78.06-73.95.05-147.89.05-221.84,0-59.96-.01-119.91,0-179.87,0-15.06.05-15.08,14.75-15.09,49.65-.01,99.3-.01,148.94,0,14.57,0,14.62.03,14.62,14.08.01,245.49,0,490.97,0,736.46,0,1.33.02,2.67-.02,4-.3,9.38-.88,10.15-10.5,10.16-55.65.07-111.29-.1-166.93.19-7.67.04-11.24-3.56-14.56-9.59-39.2-71.17-78.55-142.26-117.88-213.35-44.81-81.01-89.63-162-134.45-243-9.67-17.48-19.35-34.96-29.04-52.43-.9-1.61-1.97-3.12-4.47-4.26,0,3.89,0,7.77,0,11.66,0,164.55,0,329.09,0,493.64,0,18.68.84,17.18-17.51,17.19-49.31.04-98.63.03-147.94-.02-4.31,0-8.63-.41-12.94-.63,0-254.51,0-509.02,0-763.52Z"/><path class="cls-1" d="m1717.53,1601c-6.51-1.09-12.99-2.66-19.55-3.19-57.48-4.72-113.46-15.78-165.84-40.82-46.28-22.12-84.16-53.58-106.9-100.79-12.76-26.5-18.81-54.62-19.61-83.97-.67-24.44,2.19-48.5,7.38-72.34,2.65-12.15,2.55-12.31,15.12-14.62,28.61-5.25,56.31-13.46,83.15-24.65,38.58-16.07,73.16-38.32,102.67-67.89,34.68-34.76,57.81-76.17,68.58-124.26.58-2.58,1.27-5.14,2.06-7.67.15-.47,1.01-.72,2.33-1.6.98,2.89,2.07,5.52,2.77,8.25,5.88,22.97,13.22,45.43,24.36,66.43,3.13,5.9,2.87,11.07.56,17.05-11.43,29.61-19.81,60.05-23.94,91.59-5.78,44.12-2.24,87.04,16.86,127.86,16.07,34.34,40.49,61.44,71.63,82.86,37.38,25.71,79.03,41.04,122.83,51.17,26.29,6.07,52.91,9.99,79.79,12.68,40.52,4.06,81.13,4.97,121.68,3.1,35.17-1.62,70.38-4.6,105.29-9.12,41.87-5.43,83.45-13.14,125.17-19.82,1.53-.25,3.14-.03,5.23,1.79-3.23,1.3-6.38,2.86-9.7,3.85-47.22,14.07-94.13,29.32-141.79,41.73-51.19,13.32-102.87,24.96-154.73,35.41-37.45,7.55-75.46,12.51-113.37,17.58-26.34,3.52-52.91,5.24-79.38,7.84-2.27.22-4.48,1.04-6.71,1.59h-115.97Z"/><path class="cls-3" d="m3673,353.78c-1.01,7.2-1.88,14.43-3.04,21.61-8.19,50.54-23.23,99.13-42.31,146.51-7.09,17.59-15.03,34.85-22.7,52.2-1.82,4.12-4.12,8.02-7.98,11.31.31-1.81.42-3.68.95-5.43,10.98-36.83,18.43-74.4,20.34-112.76,2.8-56.03-6.3-109.55-37.98-157.41-24.3-36.71-58.06-61.93-97.85-79.57-37.22-16.5-76.48-24.65-116.88-28.45-33.93-3.2-67.95-2.88-101.8-1.05-47.22,2.57-93.91,10.24-140.15,20.25-82.87,17.93-163.41,43.51-242.39,74.16-54.67,21.21-108.62,44.11-161.05,70.38-44.65,22.36-88.92,45.47-133.2,68.56-7.61,3.97-15.04,6.61-23.71,6.13-8.48-.47-16.99-.19-25.49-.24-.27-.82-.54-1.64-.81-2.45,2.42-1.94,4.73-4.04,7.27-5.79,66.89-46.2,135.47-89.75,205.88-130.4,52.22-30.15,105.39-58.54,159.73-84.65,78.12-37.55,158.07-70.66,240.95-96.38,53.52-16.61,107.82-29.92,163.31-37.89,39.6-5.69,79.49-8.66,119.48-6.26,46.56,2.8,92.08,11.17,133.48,33.94,60.47,33.26,95.05,84.64,104.31,153.04.31,2.27,1.08,4.47,1.64,6.71v83.95Z"/><path class="cls-1" d="m3403.07,0c-5.65,1.82-11.24,3.86-16.96,5.41-41.75,11.34-83.77,21.8-125.26,34.02-94.31,27.77-186.72,61.09-277.29,99.24-53.37,22.48-106.19,46.34-158.75,70.67-38.66,17.9-76.81,37-114.64,56.61-73.63,38.16-145.97,78.69-216.5,122.36-25.48,15.78-50.87,31.69-76.2,47.71-4.68,2.96-9.4,4.46-14.98,4.44-43.64-.12-87.28-.06-130.93-.1-2.53,0-5.05-.47-9.84-.94,3.81-2.96,5.84-4.98,8.24-6.35,54.09-30.83,107.69-62.57,162.49-92.09,55.1-29.68,110.87-58.23,167.31-85.25,54.63-26.15,110.19-50.43,165.9-74.24,79.64-34.04,160.89-63.93,243.28-90.68,99.84-32.42,201.1-59.4,304.37-78.52,22.89-4.24,45.99-7.33,68.98-10.99,1.62-.26,3.18-.87,4.77-1.32,5.33,0,10.66,0,16,0Z"/><path class="cls-2" d="m2355.87,479.14c.57,5.17,1.36,9.04,1.36,12.91.06,164.19.8,328.38-.36,492.56-.4,57.05-14.12,111.56-46.8,159.78-29.38,43.35-69.4,73.07-118.27,91.16-35.21,13.03-71.67,20.49-109.14,22.24-25.58,1.19-51.27,2.55-76.8,1.42-52.25-2.32-103.26-11.64-150.55-35.26-59.32-29.63-100.67-75.45-122.25-138.56-8.78-25.66-14.33-51.99-15.99-79.04-1.04-16.93-1.9-33.89-1.91-50.84-.14-153.2-.08-306.39-.09-459.59,0-18.17-.55-16.76,16.93-16.77,53.64-.03,107.28-.01,160.91,0,2.67,0,5.33-.07,7.99.05,7.77.35,8.55,1.08,8.94,8.67.17,3.32.07,6.66.07,9.99,0,154.86-.14,309.72.13,464.59.05,28.39,3.75,56.42,14.2,83.21,14.25,36.53,41.22,57.34,79.5,63.21,28.53,4.38,56.98,4.03,84.91-5.13,28.18-9.24,46.94-28.13,58.6-54.81,7.96-18.22,11.88-37.51,13.44-57.12,1.58-19.88,2.15-39.88,2.17-59.82.17-145.54.09-291.07.09-436.61,0-17.37-.47-16.21,16.49-16.22,54.3-.02,108.61,0,162.91,0h13.51Z"/><path class="cls-2" d="m1042.13,1016.25c11.05-2.94,19.24-1.2,27.2,5.55,23.22,19.68,48.81,36.03,75.99,49.57,42.6,21.22,87.33,36.17,134.84,41.7,37.01,4.3,73.8,3.27,110.01-6.28,18.35-4.84,34.38-13.78,47.82-27.61,19.56-20.14,23.55-64.97-7.09-87.97-17.67-13.27-37.2-22.07-58.46-27.14-37.56-8.97-75.3-17.17-112.8-26.34-36.34-8.89-71.45-21.27-104.48-39.17-38.46-20.83-69.74-48.77-88.53-89.05-11.09-23.77-17.14-48.82-19.75-74.94-2.91-29.15-1.43-57.81,5.93-86.18,9.46-36.48,28.61-67.35,55.67-93.1,49.12-46.74,108.58-72.35,174.76-83.99,39.63-6.97,79.58-7.6,119.49-5.47,53.01,2.82,105.13,11.91,155.93,27.57,17.48,5.39,34.62,11.91,51.77,18.29,11.64,4.33,11.57,4.62,11.57,17.52.02,49.63.05,99.26-.07,148.89-.01,4.43,2.13,10.61-2.77,12.81-6,2.68-13.08,2.6-19.31-.65-2.91-1.52-5.39-3.88-8.04-5.89-45.74-34.78-96.46-58.97-152.73-71.08-25.13-5.41-50.65-8.04-76.36-6.86-26.45,1.22-52.24,5.82-76.15,18.09-12.04,6.18-22.12,14.53-30.56,25.2-20.66,26.13-12.68,68.31,17.52,84.58,20.19,10.87,41.76,17.45,63.77,22.81,33.96,8.26,68.21,15.4,102.05,24.12,41.06,10.58,81.1,24.16,117.6,46.43,32.45,19.81,59.54,44.8,76.03,79.81,11.66,24.76,17.39,51.05,18.73,78.2,1.46,29.37-.16,58.51-8.52,87.07-11.62,39.73-32.82,73.28-63.2,101.2-38.2,35.1-83.52,56.58-133.29,69.44-26.48,6.84-53.37,11.6-80.74,12.51-28.93.96-57.94,2.48-86.81,1.34-79.43-3.13-155.01-23.48-228.11-53.93-7.04-2.93-10.01-6.95-9.96-14.99.35-53.96.17-107.92.22-161.88,0-3.24.51-6.48.81-10.16Z"/><path class="cls-2" d="m2936.12,1243.31c1.05-4.28,1.59-7.47,2.61-10.49,31.54-93.38,63.15-186.74,94.68-280.13,15.12-44.8,30.02-89.68,45.11-134.49,17.21-51.12,34.52-102.21,51.79-153.32,16.1-47.63,32.18-95.27,48.31-142.89,3.63-10.72,7.45-21.38,11.16-32.07,3.7-10.66,3.69-10.73,14.67-10.75,26.66-.05,53.31-.02,79.97-.02,35.99,0,71.97-.01,107.96,0q12.93,0,16.94,11.9c12.81,38.2,25.53,76.44,38.41,114.61,34.39,101.91,68.85,203.8,103.28,305.69,16.2,47.95,32.41,95.9,48.61,143.85,17.06,50.47,34.1,100.95,51.18,151.41,2.88,8.51,6,16.95,8.87,25.46,1.03,3.07,1.64,6.28,2.75,10.64-3.8.47-6.6,1.11-9.39,1.12-60.31.06-120.62.07-180.93,0-8.9,0-9.23-.36-11.85-8.87-13.52-43.91-26.98-87.84-40.46-131.76-.68-2.23-1.35-4.47-2.13-6.66-2.91-8.2-3.16-8.52-12.25-8.53-72.64-.05-145.28-.04-217.92,0-9.37,0-9.54.2-12.69,10.5-12.74,41.71-25.31,83.48-38.17,125.16-7.38,23.91-3.36,20.08-26.62,20.16-53.65.2-107.29.07-160.94.04-3.9,0-7.8-.32-12.95-.55Zm361.33-537.84c-5.83,10.4-74.12,232.57-74.19,240.11,8.04,2.24,138.53,2.35,148.44-.25-24.64-79.61-49.27-159.15-74.25-239.86Z"/><path class="cls-2" d="m2402.68,479.82h643.03c.5,4.41,1.31,8.27,1.32,12.13.09,40.63.06,81.26.05,121.89,0,1.33.03,2.67-.08,3.99-.59,7.05-1.48,7.99-8.35,8.37-2.99.16-6,.06-8.99.06-63.97,0-127.93,0-191.9,0-2,0-4-.03-6,.01-9.56.19-10.04.55-10.06,10.34-.07,32.3-.03,64.61-.03,96.91,0,164.52,0,329.04,0,493.56,0,18.17.55,16.76-16.94,16.77-53.64.03-107.28.01-160.91,0-2.67,0-5.33.07-7.99-.05-7.77-.35-8.55-1.07-8.92-8.68-.18-3.66-.07-7.33-.07-10.99,0-193.83,0-387.66,0-581.49,0-17.63,1.25-16.4-16.03-16.4-64.97-.01-129.93,0-194.9-.01-14.41,0-14.47-.03-14.48-14.36-.03-39.63-.05-79.26.04-118.89,0-4.2.76-8.41,1.22-13.18Z"/><path class="cls-2" d="m759.86,860.49c0-121.57.03-243.14-.03-364.71,0-19.28,1.37-16.58,16.24-16.6,55.31-.08,110.62-.04,165.93-.03q15.64,0,15.67,16.17c0,138.56,0,277.11,0,415.67,0,104.92,0,209.83,0,314.75q0,16.13-15.71,16.15c-55.64,0-111.28,0-166.93,0-2,0-4,.05-6-.03-7.7-.34-8.58-1.13-9.08-8.66-.22-3.32-.1-6.66-.1-9.99,0-120.9,0-241.81,0-362.71Z"/><path class="cls-1" d="m1947.94,812.58c-.44-5.65-.9-8.81-.91-11.97-.05-46.28.08-92.57-.15-138.85-.03-7.03,2.19-11.74,7.97-15.87,43.58-31.2,86.95-62.7,130.46-94,9.46-6.8,19.18-13.24,28.86-19.73,2.62-1.76,5.53-3.11,9.77-5.47.6,5.18,1.35,8.66,1.36,12.15.09,33.96-.08,67.93.16,101.89.05,6.63-2.32,11.11-7.25,15.4-27.63,24.01-55.45,47.82-82.35,72.62-26.42,24.36-51.81,49.84-77.68,74.79-2.72,2.63-5.67,5.01-10.25,9.03Z"/></svg>